#!OML:ASF E:/inclinewalkrobotboard/Project1/Captureday1/Session1/subject1.ASF
:FULLY-SPECIFIED
:DEGREES
201
root 0 0 0 85.61945500023651 -33.18565438937275 -56.105597399827516
lowerback -11.44271980556302 9.710313912640583 14.195571205506793
upperback -20.793232959059054 12.30946987884286 3.128446280121369
thorax -15.228845957309733 4.232046278236836 -3.783466757159794
lowerneck -8.944363682805058 11.97191177244336 6.241525071379943
upperneck 10.156396843707753 14.26865866538063 9.164940740847225
head 4.524760325186061 7.723134431463456 2.792900354629942
rclavicle 9.42894604176847E-15 7.880957675211781E-15
rhumerus 33.782346216267506 -50.11398503782053 -14.560575440283344
rradius 19.909088058070267
rwrist 40.38045517605559
rhand 0.5677882566369803 2.325161285756317
rfingers 7.125020000000066
rthumb 26.134941308970696 -25.864990902711256
lclavicle 8.719099178403012E-16 2.0712140940874915E-15
lhumerus -7.227513708216935 12.988604743205732 -4.1969875781981045
lradius 20.90331640575051
lwrist -38.935939623437086
lhand 0.5056966762297213 34.34929249976818
lfingers 7.125020000000039
lthumb 26.04522517848403 62.479713298835186
rfemur 206.37592714044672 -182.70170165069567 -174.29537458775823
rtibia 56.741690675141655
rfoot 58.32235441385214 -31.03545238437222
rtoes 15.774113322415023
lfemur -54.30749466702469 25.56132262315092 21.30189666632001
ltibia 22.992871109417937
lfoot -66.10097097250602 8.912398384530523
ltoes 60.3724924883158
202
root 0 0 0 85.6355477946111 -33.197181239342534 -56.11929818049641
lowerback -11.449827035287726 9.709186212057489 14.180374901637371
upperback -20.78158213850142 12.308106411584635 3.122416321472908
thorax -15.212088942926055 4.233692766431727 -3.784616401361795
lowerneck -8.95802681090944 11.966287848328275 6.244653713330151
upperneck 10.163745630055436 14.259984310931106 9.150508659487961
head 4.531021125411554 7.718861397848187 2.7881797896273097
rclavicle 9.407337367796338E-15 7.846627133254267E-15
rhumerus 33.99818500354848 -50.06390153013521 -14.807394740609375
rradius 19.94536998553881
rwrist 40.36587350590999
rhand 0.5758491954404197 2.3323765888031076
rfingers 7.125020000000067
rthumb 26.14301185638254 -25.854323982105722
lclavicle 9.003975153279652E-16 2.0228481637437836E-15
lhumerus -7.133339839992784 12.972476686160824 -4.233812714993277
lradius 20.926493134978962
lwrist -38.87339376647199
lhand 0.5260544532517375 34.372821393432
lfingers 7.125020000000039
lthumb 26.0642320516129 62.49885596506031
rfemur 206.4140670247716 -182.7340964769058 -174.32544881288032
rtibia 56.76984323394275
rfoot 58.36222660246473 -30.99799234424551
rtoes 15.756001306548143
lfemur -54.298926460956835 25.548025214805435 21.296207347313207
ltibia 22.976454980170896
lfoot -66.11810670477438 8.9016989620384
ltoes 60.364585516591596
203
root 0 0 0 85.6291366550538 -33.190823723040744 -56.11302330264414
lowerback -11.446827267826443 9.709705697931518 14.187293956946467
upperback -20.78746773423252 12.308649140541094 3.125144938955771
thorax -15.22020662945663 4.232852364333726 -3.784087422437751
lowerneck -8.951441176902659 11.969147690086162 6.243240306819182
upperneck 10.158762658678599 14.264423998092592 9.157393681203546
head 4.5274153372391375 7.721039274687276 2.7904485002817623
rclavicle 9.375914582985957E-15 7.843964568498035E-15
rhumerus 33.888230040502386 -50.09162780433023 -14.698363466012943
rradius 19.919363843930142
rwrist 40.362749295760786
rhand 0.5710116615386736 2.328528795011703
rfingers 7.125020000000066
rthumb 26.137998960876512 -25.860006341987624
lclavicle 8.487169484309704E-16 2.0297512027751836E-15
lhumerus -7.142391429871191 12.979760572801439 -4.232993120566526
lradius 20.910627198791836
lwrist -38.909442164171864
lhand 0.5206278504803821 34.361419087527885
lfingers 7.125020000000039
lthumb 26.059323228445344 62.48884077227413
rfemur 206.39499731057322 -182.7181391109375 -174.30696292185297
rtibia 56.755288617220145
rfoot 58.34786975191841 -31.01847731473783
rtoes 15.76619910485683
lfemur -54.3084076374244 25.55419100523934 21.300053472083533
ltibia 22.987083793021405
lfoot -66.11007141554295 8.911670196527133
ltoes 60.36779467046532
204
root 0 0 0 85.62507144054459 -33.18828698468307 -56.109835422377216
lowerback -11.445153342348089 9.709976707030236 14.190730807753754
upperback -20.790012970775926 12.309009993255753 3.1265486554925426
thorax -15.223956678656377 4.23251720230904 -3.783771718485352
lowerneck -8.948401167899375 11.970424367324686 6.242571857461456
upperneck 10.157453843073283 14.266372680577453 9.160635009805626
head 4.5261670127813 7.722004014868084 2.7914976079064537
rclavicle 9.404567953033491E-15 7.860418216571934E-15
rhumerus 33.84385577157586 -50.10410077867587 -14.63810679478781
rradius 19.910389796190998
rwrist 40.37153848035159
rhand 0.5701245913327755 2.3258104514718525
rfingers 7.125020000000066
rthumb 26.137135169602278 -25.86334368119388
lclavicle 8.601477620939487E-16 2.0470087510330484E-15
lhumerus -7.1745217097162755 12.984564627917099 -4.221763664446279
lradius 20.905568004717132
lwrist -38.92263730574251
lhand 0.515002603876489 34.35548403976399
lfingers 7.125020000000039
lthumb 26.054033833238208 62.48412783196146
rfemur 206.38647633982197 -182.70953285446012 -174.30081504906204
rtibia 56.74864082403281
rfoot 58.338453756672834 -31.02672553659699
rtoes 15.771651437981738
lfemur -54.307819555441874 25.557782380143827 21.300889425014574
ltibia 22.99039399791189
lfoot -66.10728381261546 8.913622477036968
ltoes 60.37032905504572
205
root 0 0 0 85.62121523798882 -33.18641398540298 -56.10694086158705
lowerback -11.443497341787417 9.710217142728832 14.194028465660415
upperback -20.79222204896478 12.309339970074145 3.1278468637505874
thorax -15.227307688971841 4.232204647241732 -3.7835543399103226
lowerneck -8.945644965772027 11.971446667099855 6.241860817939336
upperneck 10.156716072600437 14.267944964280009 9.16357733785172
head 4.525201608964864 7.722781429937435 2.792454529008569
rclavicle 9.417194977990493E-15 7.874968179565756E-15
rhumerus 33.805704067115954 -50.111292962704674 -14.587243208467484
rradius 19.908729026658076
rwrist 40.3780664009614
rhand 0.5690284520614695 2.3248614944277524
rfingers 7.125020000000066
rthumb 26.13611098167979 -25.864875670380197
lclavicle 8.652652991003393E-16 2.063612408400597E-15
lhumerus -7.207284903247845 12.987500250430257 -4.206364913712605
lradius 20.903854753176226
lwrist -38.931782908449286
lhand 0.5092163691470095 34.35147367195105
lfingers 7.125020000000039
lthumb 26.04856550659564 62.48125730006511
rfemur 206.37990704910072 -182.7045837284631 -174.29721007423524
rtibia 56.74395286359028
rfoot 58.32799730369061 -31.03210166302069
rtoes 15.774006428120245
lfemur -54.30801339118387 25.560176684186892 21.30143807502398
ltibia 22.99235861011102
lfoot -66.10333275419556 8.913189234327827
ltoes 60.3716606266776
